<mxfile host="app.diagrams.net" modified="2024-06-26T09:42:16.715Z" agent="Mozilla/5.0 (Windows NT 10.0; Win64; x64) AppleWebKit/537.36 (KHTML, like Gecko) Chrome/109.0.0.0 Safari/537.36 SLBrowser/9.0.3.5211 SLBChan/105" etag="5ktOzgbfh9WNjC_VIlgV" version="24.6.3" type="github">
  <diagram name="第 1 页" id="X71i10_3qGYd8SdZkHsD">
    <mxGraphModel dx="794" dy="476" grid="0" gridSize="10" guides="1" tooltips="1" connect="1" arrows="1" fold="1" page="1" pageScale="1" pageWidth="827" pageHeight="1169" math="0" shadow="0">
      <root>
        <mxCell id="0" />
        <mxCell id="1" parent="0" />
        <mxCell id="X7HbZhaERKf6C3GzzKXy-1" value="" style="rounded=0;whiteSpace=wrap;html=1;" parent="1" vertex="1">
          <mxGeometry x="371" y="125" width="120" height="60" as="geometry" />
        </mxCell>
        <mxCell id="6P3_f7h6A9wHQhLIQGQQ-1" value="&lt;b&gt;type Mutex&amp;nbsp; struct {&lt;/b&gt;&lt;div&gt;&lt;span style=&quot;background-color: initial;&quot;&gt;&lt;b&gt;}&lt;/b&gt;&lt;/span&gt;&lt;/div&gt;" style="text;strokeColor=none;align=left;fillColor=none;html=1;verticalAlign=middle;whiteSpace=wrap;rounded=0;" vertex="1" parent="1">
          <mxGeometry x="129" y="158" width="246" height="204" as="geometry" />
        </mxCell>
      </root>
    </mxGraphModel>
  </diagram>
</mxfile>
